<svg xmlns="http://www.w3.org/2000/svg" xmlns:xlink="http://www.w3.org/1999/xlink" viewBox="0,0,256,256" width="26px" height="26px"><g fill="#ffffff" fill-rule="evenodd" stroke="none" stroke-width="1" stroke-linecap="butt" stroke-linejoin="miter" stroke-miterlimit="10" stroke-dasharray="" stroke-dashoffset="0" font-family="none" font-weight="none" font-size="none" text-anchor="none" style="mix-blend-mode: normal"><g transform="scale(9.84615,9.84615)"><path d="M24.12109,9.75391v6.28125c0,0.88672 -0.70703,1.60547 -1.58203,1.60547c-0.87109,0 -1.57812,-0.71875 -1.57812,-1.60547v-6.28125c0,-0.88672 0.70313,-1.60547 1.57813,-1.60547c0.875,0 1.58203,0.71875 1.58203,1.60547zM3.45703,8.14844c-0.87109,0 -1.57813,0.71875 -1.57813,1.60547v6.27734c0,0.88672 0.70703,1.60938 1.57813,1.60938c0.87891,0 1.58203,-0.72266 1.58203,-1.60937v-6.27734c0,-0.88672 -0.70312,-1.60547 -1.58203,-1.60547zM5.99219,19.66406c0,0.68359 0.55469,1.23438 1.23438,1.23438h1.41016v3.49609c0,0.88672 0.71094,1.60547 1.58203,1.60547c0.875,0 1.58203,-0.71875 1.58203,-1.60547v-3.49609h2.46094v3.49609c0,0.88672 0.71094,1.60547 1.58203,1.60547c0.875,0 1.58203,-0.71875 1.58203,-1.60547v-3.49609h1.41016c0.67969,0 1.23438,-0.54687 1.23438,-1.23047v-11.47266h-14.07812zM20.03516,7.17578h-14.07422c0.18359,-2.13672 1.63281,-3.96094 3.70313,-4.92187l-1.30078,-1.89063c-0.07812,-0.10937 -0.05859,-0.25781 0.03906,-0.32812c0.10156,-0.06641 0.24609,-0.03516 0.32813,0.07812l1.34766,1.96094c0.89063,-0.35156 1.87891,-0.54687 2.92188,-0.54687c1.04297,0 2.02734,0.19531 2.92188,0.54687l1.34766,-1.96094c0.08203,-0.11328 0.22656,-0.14453 0.32813,-0.07812c0.09766,0.07031 0.11719,0.21875 0.03906,0.32812l-1.30078,1.89063c2.06641,0.96094 3.51953,2.78516 3.69922,4.92188zM10.8125,4.44531c0,-0.42969 -0.35156,-0.77344 -0.78125,-0.77344c-0.42969,0 -0.78125,0.34766 -0.78125,0.77344c0,0.43359 0.35156,0.78125 0.78125,0.78125c0.42969,0 0.78125,-0.34766 0.78125,-0.78125zM16.84375,4.44531c0,-0.42969 -0.34766,-0.77344 -0.77734,-0.77344c-0.42969,0 -0.77734,0.34766 -0.77734,0.77344c0,0.43359 0.34766,0.78125 0.77734,0.78125c0.42969,0 0.77734,-0.34766 0.77734,-0.78125z"></path></g></g></svg>