<svg xmlns="http://www.w3.org/2000/svg" xmlns:xlink="http://www.w3.org/1999/xlink" viewBox="0,0,256,256" width="32px" height="32px"><g fill="#ffffff" fill-rule="nonzero" stroke="none" stroke-width="1" stroke-linecap="butt" stroke-linejoin="miter" stroke-miterlimit="10" stroke-dasharray="" stroke-dashoffset="0" font-family="none" font-weight="none" font-size="none" text-anchor="none" style="mix-blend-mode: normal"><g transform="scale(8,8)"><path d="M20.84375,2c-1.64062,0 -3.29687,0.85156 -4.40625,2.15625v0.03125c-0.78906,0.98047 -1.64453,2.52734 -1.375,4.3125c-0.12891,-0.05078 -0.13672,-0.03516 -0.28125,-0.09375c-0.69141,-0.28125 -1.54687,-0.59375 -2.5625,-0.59375c-3.98047,0 -7,3.60547 -7,8.34375c0,3.06641 1.03125,5.94141 2.40625,8.09375c0.6875,1.07813 1.46875,1.96484 2.28125,2.625c0.8125,0.66016 1.66406,1.125 2.625,1.125c0.96094,0 1.67969,-0.32422 2.21875,-0.5625c0.53906,-0.23828 0.95703,-0.4375 1.75,-0.4375c0.71484,0 1.07813,0.19531 1.625,0.4375c0.54688,0.24219 1.29297,0.5625 2.28125,0.5625c1.07031,0 1.98047,-0.52344 2.71875,-1.1875c0.73828,-0.66406 1.35938,-1.51953 1.875,-2.34375c0.51563,-0.82422 0.92188,-1.63281 1.21875,-2.28125c0.14844,-0.32422 0.25781,-0.59375 0.34375,-0.8125c0.08594,-0.21875 0.12891,-0.28125 0.1875,-0.53125l0.1875,-0.8125l-0.75,-0.34375c-0.17578,-0.07812 -0.875,-0.42578 -1.5,-1.0625c-0.625,-0.63672 -1.15625,-1.50781 -1.15625,-2.84375c0,-1.29297 0.49609,-2.16016 1.03125,-2.78125c0.26563,-0.30859 0.54297,-0.5625 0.75,-0.71875c0.10547,-0.07812 0.1875,-0.11719 0.25,-0.15625c0.0625,-0.03906 0.05078,-0.02734 0.15625,-0.09375l0.84375,-0.53125l-0.5625,-0.84375c-1.63281,-2.51172 -4.24609,-2.84375 -5.28125,-2.84375c-0.48047,0 -0.82031,0.16797 -1.25,0.25c0.24219,-0.22656 0.55469,-0.36719 0.75,-0.625c0.00391,-0.00391 -0.00391,-0.02734 0,-0.03125c0.01172,-0.01172 0.02344,-0.01953 0.03125,-0.03125h0.03125c1.06641,-1.19141 1.65625,-2.79297 1.5625,-4.4375l-0.0625,-0.9375zM19.65625,4.3125c-0.17187,0.66016 -0.45312,1.28906 -0.90625,1.78125l-0.0625,0.0625c-0.38281,0.51563 -0.97266,0.89844 -1.5625,1.125c0.16406,-0.65234 0.44922,-1.3125 0.84375,-1.8125c0.00781,-0.01172 0.02344,-0.01953 0.03125,-0.03125c0.4375,-0.5 1.04297,-0.875 1.65625,-1.125zM12.21875,9.8125c0.55859,0 1.17188,0.21094 1.8125,0.46875c0.64063,0.25781 1.23828,0.59375 2.09375,0.59375c0.85156,0 1.49609,-0.33594 2.25,-0.59375c0.75391,-0.25781 1.55859,-0.46875 2.34375,-0.46875c0.52344,0 1.81641,0.33203 2.90625,1.34375c-0.19141,0.17188 -0.35937,0.29688 -0.5625,0.53125c-0.76172,0.88281 -1.53125,2.25781 -1.53125,4.09375c0,1.90625 0.83203,3.33984 1.71875,4.25c0.55078,0.5625 0.89063,0.69531 1.3125,0.9375c-0.05469,0.125 -0.08594,0.22266 -0.15625,0.375c-0.26953,0.58594 -0.64062,1.33594 -1.09375,2.0625c-0.45312,0.72656 -1.00391,1.43359 -1.53125,1.90625c-0.52734,0.47266 -1,0.6875 -1.375,0.6875c-0.56641,0 -0.89844,-0.15625 -1.46875,-0.40625c-0.57031,-0.25 -1.35547,-0.59375 -2.4375,-0.59375c-1.13672,0 -1.97656,0.33594 -2.5625,0.59375c-0.58594,0.25781 -0.89062,0.40625 -1.40625,0.40625c-0.24609,0 -0.77734,-0.19922 -1.375,-0.6875c-0.59766,-0.48828 -1.25391,-1.23047 -1.84375,-2.15625c-1.18359,-1.85156 -2.09375,-4.39453 -2.09375,-7c0,-3.94141 2.19922,-6.34375 5,-6.34375z"></path></g></g></svg>