<svg xmlns="http://www.w3.org/2000/svg"  viewBox="0 0 48 48" width="48px" height="48px" baseProfile="basic"><path d="M47.458,33c-0.716-1.292-2.125-2.367-4.128-3.069c-2.375-0.83-6.524-1.6-15.331,0.905V15.438c0.84,0.38,2,1.312,2,3.562v8.1	c0,0.394,0.231,0.75,0.59,0.912C30.679,28.052,32.811,29,35,29c5,0,5-6.079,5-9v-2h-0.139c-0.657-4.602-3.643-7.889-8.573-9.358	l-12-3.6c-0.305-0.09-0.631-0.033-0.885,0.156C18.149,5.386,18,5.684,18,6v21.012L5.849,31.363l-1.666,0.627	C2.383,32.816,1.076,33.684,0.44,35H0v2c0,1.957,0.74,3.52,2.139,4.519c1.212,0.865,2.912,1.297,5.051,1.297	c2.707,0,6.115-0.691,10.126-2.067c0.177-0.059,0.424-0.144,0.684-0.235V43c0,0.459,0.312,0.859,0.757,0.97l8,2	C26.837,45.99,26.919,46,27,46c0.115,0,0.229-0.022,0.337-0.061c0.005-0.002,0.01-0.001,0.014-0.003l16.008-6.003	C45.604,39.07,48,37.905,48,35v-2H47.458z"/><path fill="#fff" d="M19,33.2c0,0-3.108,1.178-5.1,1.9c-2.41,0.873-4.442,1.399-5.275,0.4C8,34.75,8.7,34,11.4,33	c0.512-0.146,5.945-2.218,8.827-3.321L21,25L6.2,30.3l-1.6,0.6C2.2,32,1,33,1,35c0,5.2,5.8,6.3,16,2.8c0.6-0.2,2-0.7,2-0.7	l0.839-5.074L19,33.2z"/><path d="M7.19,40.816c-2.139,0-3.839-0.432-5.051-1.297C0.74,38.52,0,36.957,0,35c0-2.574,1.601-3.825,4.184-5.009l1.666-0.627	l14.814-5.305c0.331-0.121,0.704-0.054,0.978,0.174c0.272,0.227,0.404,0.581,0.346,0.931l-2,12.1	c-0.06,0.358-0.308,0.656-0.65,0.779c0,0-1.415,0.505-2.021,0.707C13.305,40.125,9.896,40.816,7.19,40.816z M19.736,26.515	L4.951,31.836C2.705,32.869,2,33.614,2,35c0,1.32,0.426,2.266,1.301,2.891c2.167,1.547,6.916,1.179,13.374-1.037	c0.354-0.118,0.979-0.338,1.434-0.499L19.736,26.515z"/><path fill="#fff" d="M43,28.875C40.5,28,36.122,27.37,26.9,30.2c-0.47,0.144-1.9,0.5-1.9,0.5l0.719,4.425	c1.355-0.392,3.494-1.044,6.38-2.025c5.3-1.8,6.8-1.5,7.9-0.1c0.255,0.324-0.5,1.2-3.5,2.3c-1.335,0.492-6.963,2.365-10.193,3.436	L27,43l16-6c2.6-1,4-2,4-4S45.111,29.614,43,28.875z"/><path d="M18,33.2c0,0-3.108,1.178-5.1,1.9c-2.41,0.873-4.442,1.399-5.275,0.4C7,34.75,7.7,34,10.4,33c0.7-0.2,10.6-4,10.6-4L18,33.2	z"/><path d="M27,44c-0.174,0-0.347-0.045-0.501-0.135c-0.259-0.15-0.438-0.409-0.485-0.705l-2-12.3	c-0.083-0.514,0.241-1.005,0.746-1.131c0.002-0.001,1.392-0.346,1.848-0.486c9.777-3,14.227-2.187,16.724-1.313	C46.298,28.97,48,30.817,48,33c0,2.905-2.396,4.07-4.641,4.933l-16.008,6.003C27.237,43.979,27.119,44,27,44z M26.134,31.444	l1.657,10.191l14.858-5.572C45.465,34.98,46,34.151,46,33c0-1.819-2.329-2.831-3.331-3.181c-3.493-1.223-8.557-0.785-15.476,1.337	C26.97,31.225,26.536,31.34,26.134,31.444z"/><path d="M24,35c0,0,0,1,8.1-1.9C37.37,31.213,40,31,40,33c0,0.412-0.5,1.2-3.5,2.3C24,40,24,40,24,40V35z"/><path fill="#fff" d="M19,4v37l8,2V13.2c0-0.6,0.6-1,1.1-0.8l0,0C29.2,12.8,31,14,31,17v8.1c0,0,2,0.9,4,0.9c4,0,4-5,4-8	c0-5.7-3.3-9-8-10.4L19,4z"/><path d="M27,44c-0.081,0-0.163-0.01-0.243-0.03l-8-2C18.313,41.859,18,41.459,18,41V4c0-0.316,0.149-0.614,0.403-0.802	c0.254-0.189,0.58-0.247,0.885-0.156l12,3.6C36.905,8.315,40,12.349,40,18c0,2.921,0,9-5,9c-2.189,0-4.321-0.948-4.41-0.988	C30.231,25.851,30,25.494,30,25.1V17c0-2.25-1.16-3.182-2-3.562V43c0,0.308-0.142,0.599-0.385,0.788C27.438,43.927,27.221,44,27,44z M20,40.219l6,1.5V13.2c0-0.617,0.305-1.191,0.815-1.538c0.497-0.335,1.115-0.407,1.656-0.191C29.276,11.764,32,13.06,32,17v7.417	C32.682,24.657,33.855,25,35,25c2.769,0,3-3.458,3-7c0-6.01-3.962-8.452-7.286-9.441L20,5.344V40.219z M27.758,13.34	c0.002,0.001,0.005,0.002,0.008,0.002C27.764,13.342,27.761,13.341,27.758,13.34z"/></svg>