<svg xmlns="http://www.w3.org/2000/svg" xmlns:xlink="http://www.w3.org/1999/xlink" viewBox="0,0,256,256" width="24px" height="24px"><g fill="#ffffff" fill-rule="nonzero" stroke="none" stroke-width="1" stroke-linecap="butt" stroke-linejoin="miter" stroke-miterlimit="10" stroke-dasharray="" stroke-dashoffset="0" font-family="none" font-weight="none" font-size="none" text-anchor="none" style="mix-blend-mode: normal"><g transform="scale(10.66667,10.66667)"><path d="M12,2c-1.625,0 -3.625,0.50391 -5.125,1.40625c-0.05859,0.03516 -0.16797,0.12891 -0.28125,0.21875c1.64063,-0.9375 5.32422,1.99609 5.40625,2.0625c0.08203,-0.06641 3.76563,-2.99609 5.40625,-2.0625c-0.11328,-0.08984 -0.22266,-0.18359 -0.28125,-0.21875c-1.5,-0.90234 -3.24609,-1.40625 -5.125,-1.40625zM5.6875,4.59375c-0.33594,0.05469 -0.70703,0.27734 -1.03125,0.625c-1.65234,1.78516 -2.65625,4.16016 -2.65625,6.78125c0,2.58984 0.97656,4.94141 2.59375,6.71875c-0.53125,-2.56641 -0.03906,-4.36719 1.40625,-6.71875c1.44922,-2.35156 4,-5 4,-5c-2.10156,-1.98437 -3.58984,-2.33594 -3.96875,-2.40625c-0.10156,-0.01953 -0.23047,-0.01953 -0.34375,0zM4.59375,18.71875c1.82813,2.01172 4.48438,3.28125 7.40625,3.28125c2.92969,0 5.57813,-1.27344 7.40625,-3.28125c-0.00391,-0.02734 -0.21484,-1.32422 -1.5625,-3.1875c-1.05078,-1.45312 -4.17578,-4.94922 -5.84375,-6.53125c-1.66797,1.58203 -4.79297,5.04688 -5.84375,6.5c-1.34766,1.85938 -1.55859,3.1875 -1.5625,3.21875zM19.40625,18.71875c1.61328,-1.77734 2.59375,-4.12891 2.59375,-6.71875c0,-2.62109 -1.00391,-4.99609 -2.65625,-6.78125c-0.42969,-0.46484 -0.97656,-0.69922 -1.375,-0.625c-0.37891,0.07031 -1.86719,0.42188 -3.96875,2.40625c0,0 2.55078,2.64844 4,5c1.44531,2.35156 1.9375,4.15234 1.40625,6.71875z"></path></g></g></svg>